<svg width="115" height="32" viewBox="0 0 115 32" fill="none" xmlns="http://www.w3.org/2000/svg">
<path d="M36.7881 3.10159C36.7881 3.17359 36.7881 3.17359 36.7881 3.10159V3.10159ZM37.9041 3.02959C38.1201 3.60559 37.9041 4.21759 37.6521 4.75759C37.2921 5.47759 36.8241 6.12559 36.3561 6.77359C35.8881 7.42159 35.4201 8.06959 34.9881 8.75359C34.3761 9.76159 33.7281 10.7336 33.0801 11.7056C31.7841 13.6856 30.4521 15.6296 29.1921 17.6096L27.3201 20.4896L26.6721 21.5336L26.1321 22.3976L25.8081 22.9736C25.6641 23.2256 25.4841 23.4056 25.3401 23.6576C25.2321 23.8736 24.7641 23.7656 24.5841 23.6936C24.3681 23.5856 24.1881 23.3696 24.3321 23.1176C24.4761 22.8656 24.5841 22.5776 24.7641 22.3256L25.1241 21.7136L25.6641 20.8136L26.3121 19.7696C27.0321 18.6896 27.7521 17.6096 28.4361 16.5296L32.3601 10.6256C32.9721 9.68959 33.5481 8.71759 34.1961 7.78159L35.5281 5.87359C35.7441 5.54959 35.9961 5.22559 36.1761 4.86559C36.2841 4.68559 36.3561 4.61359 36.4281 4.43359L36.6441 4.00159C36.6801 3.85759 36.7521 3.71359 36.7521 3.56959C36.7881 3.49759 36.7881 3.42559 36.7881 3.38959C36.7881 3.35359 36.7881 3.31759 36.7881 3.28159C36.7881 3.20959 36.7881 3.17359 36.7521 3.10159H36.7881C36.7521 3.10159 36.7521 3.10159 36.7521 3.06559H36.6801H36.5001C36.5001 3.06559 36.4641 3.06559 36.4281 3.06559H36.3561C36.0681 3.06559 35.7801 3.10159 35.4921 3.13759C35.3121 3.17359 35.5641 3.10159 35.4201 3.13759C35.3841 3.13759 35.3481 3.17359 35.3121 3.17359C35.2401 3.17359 35.1681 3.20959 35.0961 3.20959L34.6641 3.31759C34.3401 3.38959 34.0521 3.49759 33.7281 3.60559C32.5401 4.00159 31.4241 4.54159 30.3081 5.15359C26.3841 7.20559 22.7481 9.72559 19.3281 12.4616C18.2841 13.3256 17.2761 14.1896 16.2321 15.0536C17.3841 15.0176 18.5361 15.0176 19.6881 14.9816C21.9561 14.9456 24.2241 14.9456 26.4561 15.1976C26.7081 15.2336 26.9601 15.3416 27.0681 15.5936C27.1761 15.7736 27.0321 15.9896 26.8521 16.0256C26.2401 16.1336 25.5921 16.1696 24.9801 15.9536C24.9801 15.9536 24.9441 15.9176 24.9081 15.8816C22.8201 15.7736 20.7681 15.8456 18.6441 15.8816C17.5281 15.8816 16.4121 15.9176 15.2601 15.9536C13.3161 17.7176 11.4441 19.5536 9.60814 21.4256C8.16814 22.9016 6.76414 24.4496 5.39614 25.9976L3.59614 28.0856C3.23614 28.5176 2.91214 28.9136 2.55214 29.2736C2.37214 29.5256 2.15614 29.7416 1.94014 29.9576C1.83214 30.1016 1.65214 30.2456 1.47214 30.2096C1.32814 30.1736 0.968144 30.0296 1.04014 29.8136C1.07614 29.7416 1.14814 29.7056 1.22014 29.6696C1.29214 29.5976 1.32814 29.5616 1.32814 29.4896C1.47214 29.3456 1.58014 29.2016 1.68814 29.0576L2.26414 28.3016C2.66014 27.8336 2.98414 27.3656 3.38014 26.9336C5.97214 23.7296 8.81614 20.6696 11.7681 17.7896C12.3801 17.2136 12.9921 16.6016 13.6401 16.0256L10.0761 16.3496C9.28414 16.4216 8.45614 16.4936 7.66414 16.6016C6.76414 16.7456 5.86414 16.9256 4.92814 17.1416C4.82014 17.3216 4.49614 17.3216 4.28014 17.2496C3.99214 17.1776 3.59614 16.8896 3.81214 16.5656C3.88414 16.4216 4.20814 16.3856 4.35214 16.3496C4.71214 16.2416 5.10814 16.1696 5.46814 16.0976C7.16014 15.7376 8.85215 15.5936 10.5441 15.4496C11.7321 15.3416 12.9201 15.2336 14.1081 15.1616C14.2881 15.1616 14.4321 15.1616 14.6121 15.1256C16.9521 13.0376 19.3641 11.0216 21.8841 9.18559C23.7201 7.85359 25.5921 6.62959 27.5001 5.51359C29.2281 4.54159 30.9561 3.56959 32.7921 2.88559C33.6921 2.56159 34.5921 2.30959 35.5281 2.23759C36.3201 2.20159 37.5441 2.12959 37.9041 3.02959ZM1.76014 30.1016C1.76014 30.1376 1.79614 30.1016 1.79614 30.1016C1.79614 30.1016 1.79614 30.1016 1.76014 30.1016ZM47.1936 24.7016C47.1936 24.7016 47.1936 24.7016 47.1576 24.7016C47.1936 24.7016 47.2296 24.7376 47.2656 24.7376L47.1936 24.7016ZM59.1096 0.545592C59.4336 0.293591 60.4416 0.68959 60.1176 1.15759C59.9376 1.44559 59.7216 1.73359 59.5056 1.94959C59.2896 2.20159 59.0016 2.41759 58.7496 2.59759C58.6056 2.70559 58.2816 2.66959 58.1016 2.56159L57.2016 3.17359C53.3496 5.80159 49.4256 8.28559 45.5376 10.8056C43.8096 11.8856 42.1536 13.0376 40.4256 14.0816C39.6336 14.5496 38.8776 14.9816 38.1576 15.4856C37.6536 15.8456 37.2216 16.1696 36.7896 16.5656C36.8256 16.5656 36.8256 16.6016 36.8616 16.6016L37.9776 17.3216C39.8856 18.6896 41.6496 20.2376 43.4496 21.7496C44.3136 22.4696 45.2136 23.2256 46.1136 23.9096L47.1216 24.6656C47.1216 24.6656 47.1576 24.6656 47.1576 24.7016C47.1576 24.7016 47.1576 24.7016 47.1936 24.7016L47.2296 24.7376C47.2296 24.7376 47.2296 24.7376 47.2656 24.7376C47.2656 24.7376 47.2656 24.7376 47.2656 24.7736L47.3736 24.8096C47.4096 24.8456 47.4816 24.8816 47.5536 24.8816C47.5536 24.9176 47.5896 24.9176 47.6256 24.9176C47.6616 24.9536 47.5896 24.9176 47.5176 24.9176C47.8056 25.0256 48.3456 25.3856 48.0216 25.7096C47.9856 25.7456 47.9496 25.7816 47.9496 25.8176C47.8776 25.9616 47.6256 25.9976 47.5176 25.9976C47.3016 26.0336 47.0856 25.9616 46.9056 25.8896C46.7616 25.7816 46.6176 25.6736 46.5456 25.5296C46.3656 25.4216 46.1856 25.3136 46.0056 25.1696C45.5736 24.8816 45.1416 24.5576 44.7096 24.2336C42.8016 22.7216 40.9656 21.1016 39.0576 19.5896C38.2656 18.9416 37.4736 18.2936 36.6096 17.7176L36.3576 17.5376C36.2495 17.4656 36.5736 17.6816 36.4296 17.5736L36.3216 17.5016C36.2136 17.4656 36.1416 17.3936 36.0336 17.3576H35.9976C35.9615 17.3216 35.9615 17.3216 35.9256 17.3216C35.8536 17.2856 35.9256 17.3216 35.9976 17.3576C35.9976 17.3216 35.9615 17.3216 35.9615 17.3216L35.8896 17.2856C35.8176 17.2856 35.7456 17.2856 35.6376 17.2496C34.5576 19.0136 33.5136 20.7776 32.5056 22.5416L31.6055 24.1256L31.4976 24.3416C31.4616 24.3776 31.4616 24.4136 31.4616 24.4136C31.4255 24.4496 31.4255 24.4496 31.4255 24.4856L31.2095 24.8456L30.8135 25.6016C30.3455 26.5016 29.8775 27.4016 29.4455 28.3016C29.1935 28.9496 28.9055 29.5976 28.7255 30.2816C28.7255 30.3536 28.6895 30.3896 28.6895 30.4616V30.5336C28.6895 30.6056 28.6535 30.7856 28.6535 30.6056V30.6416V30.7136C28.7615 30.7856 28.8695 30.8936 28.8695 31.0376C28.9055 31.3256 28.5815 31.3616 28.4015 31.3616C28.3655 31.3616 28.3655 31.3616 28.3655 31.3616C28.3655 31.3616 28.3655 31.3616 28.4015 31.3616C28.0775 31.3256 27.6815 31.1096 27.5735 30.8216C27.4655 30.6416 27.5015 30.7136 27.5375 30.7496C27.5375 30.7496 27.5015 30.7136 27.5015 30.6776V30.6056V30.4976C27.4655 30.3536 27.5015 30.2456 27.5015 30.1016C27.6095 29.4896 27.8615 28.8776 28.1135 28.3016C28.9415 26.3216 30.0215 24.4136 31.1015 22.5416C32.2536 20.4896 33.4775 18.4376 34.7016 16.4216L37.0415 12.7136C37.4376 12.1016 37.8696 11.4896 38.3016 10.8776L40.2456 7.96159C40.8576 6.98959 41.5056 6.01759 42.1536 5.08159L43.1616 3.64159L43.7016 2.88559C43.7376 2.81359 43.8816 2.66959 43.8816 2.63359C43.8456 2.70559 43.8816 2.59759 43.8816 2.59759V2.52559C43.8816 2.48959 43.8816 2.45359 43.8816 2.45359V2.41759C43.8816 2.34559 43.9536 2.27359 44.0256 2.23759C44.0616 2.23759 44.0976 2.20159 44.1336 2.20159C44.2416 2.16559 44.3496 2.20159 44.4576 2.20159C44.4936 2.20159 44.5656 2.23759 44.6376 2.23759C44.6376 2.27359 44.6736 2.27359 44.7096 2.27359L44.7456 2.30959C44.8176 2.34559 44.9256 2.41759 44.9616 2.48959C44.9976 2.52559 45.0336 2.59759 45.0336 2.66959V2.88559C45.0336 3.02959 44.9616 3.13759 44.8896 3.24559L44.3856 3.96559L43.4856 5.26159C42.8736 6.16159 42.2976 7.06159 41.6856 7.92559C41.1096 8.86159 40.4976 9.76159 39.8856 10.6616L38.1936 13.1816L37.1496 14.8736C37.1496 14.8376 37.1856 14.8376 37.2216 14.8016C37.9416 14.2976 38.6976 13.8656 39.4536 13.3976C40.1735 12.9656 40.8936 12.4976 41.6136 12.0296L47.4816 8.24959C51.3696 5.76559 55.2216 3.24559 59.0016 0.617591C59.0376 0.581591 59.0736 0.581591 59.1096 0.545592ZM28.6535 30.8216C28.6895 30.8576 28.6895 30.8576 28.6895 30.8576C28.6895 30.8576 28.6895 30.8216 28.6535 30.8216ZM28.6895 30.7856C28.6535 30.7136 28.6535 30.7496 28.6535 30.7856C28.6895 30.7856 28.6895 30.7856 28.6895 30.7856ZM47.3016 24.7736C47.3376 24.7736 47.3016 24.7736 47.2656 24.7736C47.3016 24.7736 47.3016 24.7736 47.3016 24.7736ZM27.5375 30.7496C27.5375 30.7856 27.5375 30.7856 27.5375 30.7496V30.7496ZM53.9368 14.2256C54.2608 14.0096 55.1248 14.4416 54.6928 14.8016C54.0448 15.3416 53.2528 15.7016 52.4608 16.0256C51.6688 16.3496 50.8408 16.6376 49.9768 16.8176C49.6528 16.8536 49.1848 16.9616 48.7528 16.9976C48.5728 17.2496 48.3928 17.5016 48.1768 17.7536C47.8168 18.2216 47.4568 18.6536 47.0608 19.0856C46.5928 19.5896 46.0528 20.0936 45.4048 20.3456C44.7928 20.5976 44.0728 20.7416 43.4608 20.3816C43.1728 20.2016 42.9568 19.9496 42.8848 19.5896C42.8128 19.3016 42.8488 18.9776 42.9208 18.6896C43.1368 17.7536 43.6408 16.8896 44.1808 16.1336C44.7928 15.3416 45.5128 14.6216 46.3768 14.1176C46.5928 14.0096 46.9168 14.0816 47.0968 14.2256C47.3848 14.4416 47.2408 14.8376 46.9168 14.8376C46.3048 15.3416 45.7648 15.9176 45.2608 16.5656C44.7568 17.2136 44.2888 17.9696 44.0728 18.7976C44.0368 18.9416 43.9648 19.1216 43.9648 19.3016V19.3376V19.4456V19.5896C43.9648 19.7696 44.1448 19.7696 44.2528 19.7696C44.3248 19.7696 44.3608 19.7336 44.4328 19.7336C44.4688 19.7336 44.6488 19.6256 44.5408 19.6976L44.7208 19.5896C45.2968 19.3016 45.6928 18.9056 46.1608 18.4376C46.5568 17.9696 46.9888 17.5016 47.3488 16.9976C47.4568 16.8536 47.5648 16.7456 47.6368 16.6376C47.6008 16.6016 47.5648 16.5656 47.5288 16.5296C47.3128 16.2776 47.2408 15.9536 47.2408 15.6296C47.2408 15.4136 47.2408 15.1256 47.3488 14.9096C47.4568 14.5856 47.7088 14.2616 47.9968 14.0816C48.4648 13.8296 49.0408 13.9736 49.3288 14.4056C49.6888 14.9096 49.5448 15.4856 49.3288 16.0256V16.0616H49.4008C50.2648 15.8816 51.0928 15.5936 51.9208 15.2696L53.0008 14.7656C53.3248 14.5856 53.6488 14.4416 53.9368 14.2256ZM48.3928 14.6216H48.3568C48.3928 14.6216 48.3928 14.6216 48.3928 14.6216ZM63.6453 14.8016C63.7893 14.8736 64.0773 15.1256 63.8613 15.3416C62.3853 16.7456 60.7293 17.8976 58.9653 18.9416C58.3893 19.3016 57.7773 19.5896 57.1293 19.8776C56.2653 20.2736 55.3293 20.6696 54.3573 20.8136C53.5293 20.9216 52.6293 20.8496 52.0173 20.1656C51.8373 19.9856 51.6213 19.5896 51.5493 19.3736C51.4773 19.1216 51.4053 18.8696 51.3333 18.6176C51.2613 18.6896 51.1893 18.7616 51.1173 18.8696C50.7933 19.2296 50.4693 19.6616 50.2173 20.0936C50.0373 20.4536 49.8213 20.8496 49.6413 21.2456C49.5333 21.4976 49.2093 21.4976 48.9933 21.4256C48.8133 21.3536 48.4533 21.1376 48.5613 20.8856C48.7053 20.4536 48.9213 20.0936 49.1373 19.6976C50.6493 16.5656 52.3413 13.5416 54.3573 10.6616C54.9333 9.83359 55.5813 9.00559 56.2293 8.21359C56.7333 7.56559 57.2733 6.95359 57.8133 6.34159L59.0013 5.08159C59.2173 4.90159 59.3973 4.68559 59.6493 4.54159C59.9013 4.39759 60.2973 4.36159 60.5493 4.57759C60.6573 4.68559 60.8013 4.90159 60.5853 5.04559C60.5493 5.04559 60.4773 5.08159 60.4053 5.08159C60.3693 5.08159 60.3693 5.08159 60.3693 5.08159C60.3693 5.08159 60.3693 5.08159 60.3693 5.11759L60.2613 5.18959C60.0813 5.36959 59.9013 5.51359 59.7573 5.69359L58.7853 6.77359C57.8493 7.85359 56.9133 8.93359 56.0853 10.0856C54.7893 11.8496 53.6013 13.7216 52.5213 15.6296C52.9173 15.2336 53.2773 14.8736 53.7093 14.5856C54.2853 14.1536 54.8973 13.8656 55.5813 13.8656C56.2293 13.9016 57.1293 14.3336 56.9853 15.0896C56.9493 15.3776 56.7693 15.6296 56.5893 15.8816L55.9053 16.6376C55.4013 17.0696 54.8613 17.3936 54.2493 17.7176C53.6733 18.0416 53.0253 18.3656 52.3773 18.4736C52.4493 18.7616 52.5213 19.0136 52.5933 19.2656C52.8813 19.8416 53.2773 20.0576 53.9613 19.9856C54.8973 19.8776 55.7973 19.4816 56.6613 19.0856C57.2733 18.7976 57.8493 18.4376 58.4253 18.1136C60.0093 17.1416 61.5573 16.0616 62.8893 14.8016C63.0693 14.5856 63.4293 14.6216 63.6453 14.8016ZM52.7373 17.0336C52.5933 17.2136 52.4493 17.3936 52.2693 17.6096L52.5213 17.5376C52.9173 17.3576 53.2773 17.1776 53.6373 16.9616C53.8893 16.8176 54.1773 16.7096 54.3933 16.5296L54.7533 16.2776C54.7533 16.2416 54.8253 16.2056 54.8973 16.1336L55.0773 15.9896C55.2933 15.7736 55.5453 15.5216 55.7253 15.2696L55.8333 15.0896C55.8693 15.0536 56.0133 14.5496 55.5093 14.6576C55.2573 14.6576 54.8613 14.8736 54.5733 15.1616C54.2853 15.4496 54.1413 15.5216 53.8893 15.7736C53.4933 16.1696 53.0973 16.6016 52.7373 17.0336ZM72.5151 14.5856C72.6591 14.6936 72.8391 14.9456 72.6591 15.0896C71.9031 15.7736 70.8951 16.3856 70.0671 16.9976C69.2031 17.6096 68.3391 18.1496 67.4031 18.7256C66.1071 19.5176 64.8111 20.2736 63.4071 20.8496C62.4711 21.2096 61.2471 21.6056 60.3111 21.1016C59.9151 20.8856 59.6271 20.5256 59.5911 20.0576C59.5551 19.5176 59.7711 18.9416 59.9511 18.4376C60.4911 16.8536 61.2831 15.3776 62.1111 13.9016C62.6511 12.8576 63.2271 11.8496 63.8391 10.8416H63.1551C61.0671 10.8416 59.0151 10.8416 56.9631 10.8776C54.9831 10.8776 53.0031 10.9136 51.0231 10.9136C49.5471 10.9136 48.0711 10.9496 46.5591 10.9496H45.4431H45.2991C44.8671 10.9856 44.2551 11.0216 44.1111 10.4816C44.0751 10.3736 44.183 10.2656 44.2551 10.1936C44.3271 10.1216 44.4711 10.1216 44.5791 10.1216C44.5431 10.1216 44.5431 10.1216 44.5071 10.1216C44.5431 10.1216 44.5431 10.1216 44.5431 10.1216H44.6511C45.8031 10.0856 46.9551 10.0856 48.1431 10.0856C48.7191 10.0856 49.3311 10.0856 56.7831 10.0136H62.9391C63.4071 10.0136 63.8751 10.0136 64.3431 9.97759C64.4511 9.76159 64.5951 9.54559 64.7391 9.29359C64.8111 9.11359 64.9191 8.93359 65.0271 8.75359L65.2431 8.35759C65.4591 7.96159 65.7111 7.56559 65.9631 7.16959L66.8271 5.87359L67.3311 5.22559L67.5831 4.93759C67.6911 4.79359 67.7991 4.75759 68.0151 4.72159C68.2311 4.72159 68.4471 4.79359 68.5551 4.93759C68.6631 5.04559 68.6631 5.18959 68.5911 5.33359C67.9431 6.12559 67.4391 7.02559 66.8991 7.85359C66.7911 8.06959 66.6111 8.28559 66.5031 8.46559L66.2871 8.89759C66.1071 9.25759 65.9271 9.58159 65.7111 9.90559C65.7111 9.94159 65.6751 9.97759 65.6751 9.97759C66.4311 9.97759 67.2231 10.0136 68.0151 10.0136C68.9511 10.0136 69.9231 9.97759 70.8591 10.0856C71.0751 10.1216 71.3631 10.2656 71.4711 10.4816C71.5431 10.6616 71.4351 10.8776 71.2191 10.9136C70.6071 11.0216 70.0311 11.2376 69.3831 11.3456C69.0951 11.3816 68.7711 11.3096 68.5911 11.0936C68.5191 11.0216 68.4831 10.9496 68.4831 10.8416C68.4111 10.8416 68.3391 10.8416 68.2671 10.8416H65.1711C64.5231 12.0296 63.8031 13.2536 63.1551 14.4416C62.3991 15.9176 61.6071 17.3936 61.0671 18.9776C60.9591 19.3016 60.8511 19.6256 60.8151 20.0216C60.8151 20.0576 60.8151 20.0576 60.8151 20.0576C60.8151 20.7056 61.4271 20.4536 61.8231 20.3456C62.3271 20.2016 62.8311 20.0216 63.4071 19.7336C66.3231 18.3296 69.1671 16.4576 71.6871 14.4776C71.9031 14.2976 72.3351 14.4416 72.5151 14.5856ZM78.4674 14.2256C78.7914 14.0096 79.6554 14.4416 79.2234 14.8016C78.5754 15.3416 77.7834 15.7016 76.9914 16.0256C76.1994 16.3496 75.3714 16.6376 74.5074 16.8176C74.1834 16.8536 73.7154 16.9616 73.2834 16.9976C73.1034 17.2496 72.9234 17.5016 72.7074 17.7536C72.3474 18.2216 71.9874 18.6536 71.5914 19.0856C71.1234 19.5896 70.5834 20.0936 69.9354 20.3456C69.3234 20.5976 68.6034 20.7416 67.9914 20.3816C67.7034 20.2016 67.4874 19.9496 67.4154 19.5896C67.3434 19.3016 67.3794 18.9776 67.4514 18.6896C67.6674 17.7536 68.1714 16.8896 68.7114 16.1336C69.3234 15.3416 70.0434 14.6216 70.9074 14.1176C71.1234 14.0096 71.4474 14.0816 71.6274 14.2256C71.9154 14.4416 71.7714 14.8376 71.4474 14.8376C70.8354 15.3416 70.2954 15.9176 69.7914 16.5656C69.2874 17.2136 68.8194 17.9696 68.6034 18.7976C68.5674 18.9416 68.4954 19.1216 68.4954 19.3016V19.3376V19.4456V19.5896C68.4954 19.7696 68.6754 19.7696 68.7834 19.7696C68.8554 19.7696 68.8914 19.7336 68.9634 19.7336C68.9994 19.7336 69.1794 19.6256 69.0714 19.6976L69.2514 19.5896C69.8274 19.3016 70.2234 18.9056 70.6914 18.4376C71.0874 17.9696 71.5194 17.5016 71.8794 16.9976C71.9874 16.8536 72.0954 16.7456 72.1674 16.6376C72.1314 16.6016 72.0954 16.5656 72.0594 16.5296C71.8434 16.2776 71.7714 15.9536 71.7714 15.6296C71.7714 15.4136 71.7714 15.1256 71.8794 14.9096C71.9874 14.5856 72.2394 14.2616 72.5274 14.0816C72.9954 13.8296 73.5714 13.9736 73.8594 14.4056C74.2194 14.9096 74.0754 15.4856 73.8594 16.0256V16.0616H73.9314C74.7954 15.8816 75.6234 15.5936 76.4514 15.2696L77.5314 14.7656C77.8554 14.5856 78.1794 14.4416 78.4674 14.2256ZM72.9234 14.6216H72.8874C72.9234 14.6216 72.9234 14.6216 72.9234 14.6216ZM90.2639 14.5496C90.7319 14.1536 91.3439 14.7656 91.0559 15.1256C91.0199 15.1616 90.9479 15.1976 90.8039 15.3416L90.5159 15.5576C90.2279 15.7736 89.9399 15.9536 89.6879 16.1696L87.4559 17.6816C86.3399 18.3656 85.2239 19.0856 83.9999 19.6256C83.5679 19.8416 82.9919 20.0576 82.4879 20.1296C81.9839 20.2376 81.4439 20.2376 81.0839 19.7696C80.7959 19.4456 80.8679 18.9416 81.0119 18.5456C81.1559 18.0056 81.4439 17.5016 81.6959 16.9616C81.9839 16.4216 82.2719 15.8816 82.5239 15.3056C82.6319 14.9816 82.6319 15.0176 82.5959 15.0536C82.4879 15.1256 82.6319 14.9816 82.5239 15.0896C82.5239 15.0896 82.4879 15.1256 82.4519 15.1616C82.3799 15.1976 82.3439 15.2696 82.3079 15.3056L81.9839 15.5936L81.3359 16.3496C80.4719 17.3576 79.6799 18.4376 78.6359 19.2656C78.3479 19.4816 77.6999 19.2296 77.6639 18.8696C77.5919 18.1136 77.9519 17.3936 78.3119 16.7096C78.4559 16.4216 78.6359 16.0976 78.7439 15.8096C78.0959 16.3136 77.4839 16.9256 76.9079 17.5376C76.0079 18.5096 75.1799 19.5536 74.4959 20.7056C74.2799 21.0296 73.3079 20.7056 73.4519 20.2736C74.4239 17.8976 75.8639 15.7016 77.2679 13.5416C77.3399 13.3976 77.6279 13.4336 77.7359 13.4696C78.0239 13.5416 78.2039 13.7936 78.2039 14.1176C78.2039 14.2616 78.0959 14.3336 77.9879 14.3336C77.7359 14.5136 76.9799 15.8456 76.8359 16.0976C77.0519 15.8816 77.3039 15.6656 77.5559 15.4856C78.0239 15.0896 78.5279 14.7296 79.0679 14.4416C79.3559 14.2976 79.9679 14.4416 80.0039 14.8376C80.1119 15.5936 79.7519 16.2776 79.4279 16.9256C79.7519 16.4936 80.1479 16.0616 80.5079 15.6656C81.2279 14.8376 82.1999 13.6856 83.4239 13.8296C83.6399 13.8656 83.9999 14.0096 84.0359 14.2616C84.0359 14.8376 83.7119 15.4136 83.4959 15.9176C83.1359 16.6016 82.7759 17.2856 82.4519 17.9696C82.3439 18.2216 82.1999 18.4736 82.1279 18.7256L82.0199 19.0856C82.0199 19.1216 81.9839 19.1936 81.9839 19.2296C81.9839 19.2656 81.9479 19.4096 81.9839 19.3016V19.4096C82.3079 19.4096 82.6319 19.2656 82.9559 19.1216C83.4959 18.8696 83.9639 18.6176 84.5039 18.3296C85.6919 17.6456 86.8439 16.9256 87.9599 16.1336L89.3639 15.1616L90.2639 14.5496ZM96.9891 14.2256C97.3131 14.0096 98.1771 14.4416 97.7451 14.8016C97.0971 15.3416 96.3051 15.7016 95.5131 16.0256C94.7211 16.3496 93.8931 16.6376 93.0291 16.8176C92.7051 16.8536 92.2371 16.9616 91.8051 16.9976C91.6251 17.2496 91.4451 17.5016 91.2291 17.7536C90.8691 18.2216 90.5091 18.6536 90.1131 19.0856C89.6451 19.5896 89.1051 20.0936 88.4571 20.3456C87.8451 20.5976 87.1251 20.7416 86.5131 20.3816C86.2251 20.2016 86.0091 19.9496 85.9371 19.5896C85.8651 19.3016 85.9011 18.9776 85.9731 18.6896C86.1891 17.7536 86.6931 16.8896 87.2331 16.1336C87.8451 15.3416 88.5651 14.6216 89.4291 14.1176C89.6451 14.0096 89.9691 14.0816 90.1491 14.2256C90.4371 14.4416 90.2931 14.8376 89.9691 14.8376C89.3571 15.3416 88.8171 15.9176 88.3131 16.5656C87.8091 17.2136 87.3411 17.9696 87.1251 18.7976C87.0891 18.9416 87.0171 19.1216 87.0171 19.3016V19.3376V19.4456V19.5896C87.0171 19.7696 87.1971 19.7696 87.3051 19.7696C87.3771 19.7696 87.4131 19.7336 87.4851 19.7336C87.5211 19.7336 87.7011 19.6256 87.5931 19.6976L87.7731 19.5896C88.3491 19.3016 88.7451 18.9056 89.2131 18.4376C89.6091 17.9696 90.0411 17.5016 90.4011 16.9976C90.5091 16.8536 90.6171 16.7456 90.6891 16.6376C90.6531 16.6016 90.6171 16.5656 90.5811 16.5296C90.3651 16.2776 90.2931 15.9536 90.2931 15.6296C90.2931 15.4136 90.2931 15.1256 90.4011 14.9096C90.5091 14.5856 90.7611 14.2616 91.0491 14.0816C91.5171 13.8296 92.0931 13.9736 92.3811 14.4056C92.7411 14.9096 92.5971 15.4856 92.3811 16.0256V16.0616H92.4531C93.3171 15.8816 94.1451 15.5936 94.9731 15.2696L96.0531 14.7656C96.3771 14.5856 96.7011 14.4416 96.9891 14.2256ZM91.4451 14.6216H91.4091C91.4451 14.6216 91.4451 14.6216 91.4451 14.6216ZM105.006 14.1896C105.294 13.9736 106.086 14.4416 105.726 14.7296C105.582 14.9096 105.33 15.0536 105.114 15.1616L104.25 15.5936C103.458 15.9176 102.666 16.2056 101.838 16.3856C101.37 16.4576 100.902 16.5296 100.434 16.5296C100.074 16.5296 99.7136 16.4936 99.3896 16.3856C99.1376 16.6016 98.9216 16.8536 98.6696 17.0696C97.9856 17.6816 97.3016 18.3296 96.5816 18.8696C95.7536 19.5536 94.8536 20.2016 93.9896 20.8496C93.8096 20.9576 93.4856 20.8856 93.3056 20.8136C93.1616 20.7416 92.9816 20.5976 92.9816 20.4176C93.0536 19.3376 93.4136 18.2936 93.8456 17.3216C94.0616 16.8176 94.2776 16.3496 94.4576 15.8456L94.7816 15.0536C94.8536 14.8016 94.9256 14.5496 95.0696 14.3336C95.2856 14.0096 96.1856 14.2976 96.0416 14.6936C96.0056 14.9456 95.9336 15.2336 95.8616 15.4496C95.7536 15.7016 95.6816 15.9536 95.5736 16.1696C95.3936 16.6736 95.1776 17.1416 94.9616 17.6096C94.7456 18.1496 94.5296 18.7256 94.3496 19.2656C94.9256 18.8696 95.4656 18.4736 96.0056 18.0416C96.6536 17.5016 97.2656 16.9256 97.8776 16.3496C98.1296 16.1336 98.3456 15.9176 98.5616 15.7016C98.4536 15.4496 98.3816 15.1616 98.4536 14.8376C98.5616 14.2616 98.8856 13.7576 99.2816 13.3256C99.6776 12.9296 100.146 12.5696 100.758 12.4976C101.01 12.4976 101.478 12.6416 101.478 12.9656C101.478 13.1096 101.478 13.2896 101.442 13.4336C101.298 14.1536 100.83 14.8376 100.362 15.3776C100.254 15.5216 100.11 15.6296 100.002 15.7736C100.218 15.7736 100.398 15.7736 100.614 15.7376C101.478 15.6656 102.342 15.4136 103.206 15.0536C103.494 14.9456 103.89 14.7656 104.214 14.5856C104.754 14.2616 105.114 14.1176 105.006 14.1896ZM113.884 14.8016C114.064 14.8736 114.352 15.1616 114.172 15.3056C112.984 16.3496 111.904 17.3216 110.572 18.1856C109.96 18.5816 109.672 18.7976 109.204 19.0496C107.764 19.8416 107.26 20.0576 106.72 20.1656C105.856 20.2736 104.74 20.1656 104.272 19.3736C103.984 18.9416 104.056 18.3656 104.2 17.8616C103.876 18.2576 103.516 18.5816 103.12 18.9416C102.76 19.2656 102.436 19.6976 102.076 19.9496C101.788 20.2016 101.464 20.3816 101.068 20.5256C100.636 20.7056 100.132 20.7056 99.6641 20.3816C99.3401 20.1296 99.1961 19.6976 99.1961 19.3016C99.2321 18.4016 99.7721 17.6816 100.276 16.9976C100.852 16.2776 101.5 15.6296 102.256 15.0896C102.796 14.6936 103.408 14.4056 104.164 14.1536C104.416 14.0816 104.776 14.0096 105.064 14.0456C105.388 14.1536 105.856 14.4056 105.676 14.8016C105.568 15.0536 105.28 15.0536 105.064 14.9456C104.992 14.9456 104.956 14.9096 104.884 14.8736C104.848 14.8736 104.848 14.8736 104.848 14.8736C104.812 14.9096 104.74 14.8736 104.704 14.9096C104.668 14.9096 104.488 14.9816 104.56 14.9456C103.984 15.1976 103.444 15.5216 102.94 15.8816C102.508 16.2416 101.968 16.7096 101.536 17.2496C101.104 17.7536 100.636 18.2936 100.42 18.9776C100.312 19.2656 100.24 19.5896 100.348 19.8776C100.384 19.8776 100.42 19.8776 100.456 19.8416C100.852 19.6256 101.14 19.4456 101.428 19.1576C101.824 18.8336 102.184 18.4736 102.508 18.1136L104.596 15.8816L105.712 14.8736L105.748 14.8376C106 14.5136 106.324 14.2256 106.54 13.9016C106.792 13.6136 107.62 13.8656 107.62 14.2616V14.2976C107.62 14.3696 107.512 14.5136 107.44 14.5856C107.404 14.6576 107.332 14.6936 107.296 14.7656C107.008 15.1256 106.864 15.1616 106.18 16.2056C106.072 16.3856 105.928 16.5656 105.856 16.7456C105.64 17.1776 105.424 17.6456 105.316 18.0416L105.208 18.4016C104.956 19.0496 105.496 19.6256 106.36 19.3736C107.08 19.1576 107.692 18.7976 108.448 18.4016C110.212 17.4656 111.652 16.1336 113.164 14.8016C113.416 14.6576 113.704 14.6936 113.884 14.8016Z" fill="white"/>
</svg>
