<svg width="55" height="46" viewBox="0 0 55 46" fill="none" xmlns="http://www.w3.org/2000/svg">
<path d="M0.09375 10.1237C0.09375 4.59697 4.57401 0.116699 10.1007 0.116699H44.8776C50.4043 0.116699 54.8845 4.59696 54.8845 10.1236V35.1234C54.8845 40.6501 50.4043 45.1304 44.8776 45.1304H10.1007C4.57402 45.1304 0.09375 40.6501 0.09375 35.1235V10.1237Z" fill="url(#paint0_linear_72_65)"/>
<path d="M36.4668 23.2235C36.7984 23.2235 37.0672 22.9546 37.0672 22.623C37.0672 22.2914 36.7984 22.0226 36.4668 22.0226V23.2235ZM18.0868 22.1985C17.8524 22.433 17.8524 22.8131 18.0868 23.0476L21.9079 26.8686C22.1423 27.1031 22.5225 27.1031 22.757 26.8686C22.9915 26.6342 22.9915 26.254 22.757 26.0195L19.3605 22.623L22.757 19.2266C22.9915 18.9921 22.9915 18.6119 22.757 18.3775C22.5225 18.143 22.1423 18.143 21.9079 18.3775L18.0868 22.1985ZM36.4668 22.0226L18.5114 22.0226V23.2235L36.4668 23.2235V22.0226Z" fill="white"/>
<defs>
<linearGradient id="paint0_linear_72_65" x1="16" y1="11.5" x2="48.5" y2="50.5" gradientUnits="userSpaceOnUse">
<stop stop-color="#AD1300"/>
<stop offset="1" stop-color="#7C1609"/>
</linearGradient>
</defs>
</svg>
