<svg width="163" height="60" viewBox="0 0 163 60" fill="none" xmlns="http://www.w3.org/2000/svg">
<rect width="163" height="60" rx="30" fill="#AD1300"/>
<path d="M21.7012 50.0002V9.10188H31.0494L34.4381 30.1353L37.7684 9.10188H47.2918V50.0586H39.6964V30.3106L36.3661 50.0002H32.4516L29.1213 30.4859V50.0002H21.7012Z" fill="white"/>
<path d="M63.7739 9.10188L69.9671 50.0002H62.547L61.729 43.6902H56.0033L55.1269 50.0002H47.8236L53.9583 9.10188H63.7739ZM60.9695 37.1464L58.8661 19.9691L56.8796 37.1464H60.9695Z" fill="white"/>
<path d="M78.6155 9.10188C79.9788 9.10188 81.2642 9.31611 82.4717 9.74457C83.7181 10.173 84.8282 10.8547 85.8019 11.7895C86.7757 12.6854 87.5742 13.8539 88.1974 15.2951C88.8596 16.7362 89.288 18.489 89.4828 20.5534C89.7554 23.0852 89.6776 25.208 89.2491 26.9219C88.8596 28.5967 88.3727 29.9405 87.7884 30.9533C87.1263 32.1997 86.3278 33.1735 85.393 33.8746L90.2423 50.0002H82.7638L79.1998 36.27L77.5639 36.5622V50.0002H70.2022L70.2606 9.10188H78.6155ZM77.5639 29.3173C78.4597 29.2394 79.1998 29.0252 79.7841 28.6746C80.3683 28.2851 80.8552 27.7982 81.2447 27.214C81.6342 26.6297 81.9069 25.9676 82.0627 25.2275C82.2185 24.4874 82.2964 23.7279 82.2964 22.9489C82.2964 22.1309 82.2185 21.3324 82.0627 20.5534C81.9069 19.7354 81.6537 19.0149 81.3031 18.3916C80.9526 17.7295 80.4657 17.2036 79.8425 16.8141C79.2582 16.4246 78.4987 16.2299 77.5639 16.2299V29.3173Z" fill="white"/>
<path d="M95.8344 9.10188L99.1062 33.7577L102.553 9.10188H109.915L103.43 50.0002H94.7827L88.239 9.10188H95.8344Z" fill="white"/>
<path d="M110.377 50.0002V9.10188H124.107V16.3467H117.914V25.5781H124.166V33.1735H117.563V42.4048H124.224V50.0002H110.377Z" fill="white"/>
<path d="M133.765 9.04346V42.6385H140.075V50.0586H126.52V9.10188L133.765 9.04346Z" fill="white"/>
</svg>
