<svg width="812" height="282" viewBox="0 0 812 282" fill="none" xmlns="http://www.w3.org/2000/svg">
<path d="M0.799805 281V1.00009H64.7998L87.9998 145L110.8 1.00009H176V281.4H124V146.2L101.2 281H74.3998L51.5998 147.4V281H0.799805Z" fill="white"/>
<path d="M288.84 1.00009L331.24 281H280.44L274.84 237.8H235.64L229.64 281H179.64L221.64 1.00009H288.84ZM269.64 193L255.24 75.4001L241.64 193H269.64Z" fill="white"/>
<path d="M390.45 1.00009C399.783 1.00009 408.583 2.46676 416.85 5.40011C425.383 8.33343 432.983 13.0001 439.65 19.4001C446.316 25.5334 451.783 33.5334 456.05 43.4001C460.583 53.2668 463.516 65.2668 464.85 79.4001C466.716 96.7334 466.183 111.267 463.25 123C460.583 134.467 457.25 143.667 453.25 150.6C448.716 159.133 443.25 165.8 436.85 170.6L470.05 281H418.85L394.45 187L383.25 189V281H332.85L333.25 1.00009H390.45ZM383.25 139.4C389.383 138.867 394.45 137.4 398.45 135C402.45 132.333 405.783 129 408.45 125C411.116 121 412.983 116.467 414.05 111.4C415.116 106.333 415.65 101.133 415.65 95.8001C415.65 90.2001 415.116 84.7334 414.05 79.4001C412.983 73.8001 411.25 68.8668 408.85 64.6001C406.45 60.0668 403.116 56.4668 398.85 53.8001C394.85 51.1334 389.65 49.8001 383.25 49.8001V139.4Z" fill="white"/>
<path d="M508.334 1.00009L530.734 169.8L554.334 1.00009H604.734L560.334 281H501.134L456.334 1.00009H508.334Z" fill="white"/>
<path d="M607.897 281V1.00009H701.897V50.6001H659.497V113.8H702.297V165.8H657.097V229H702.697V281H607.897Z" fill="white"/>
<path d="M768.015 0.600098V230.6H811.215V281.4H718.415V1.00009L768.015 0.600098Z" fill="white"/>
</svg>
