<svg width="1894" height="120" viewBox="0 0 1894 120" fill="none" xmlns="http://www.w3.org/2000/svg">
<path d="M38.3616 25.7533H48.9289V93H38.3616V65.9092C36.056 68.4069 32.2133 69.6558 29.3313 69.6558C20.6853 69.6558 16.1702 63.4115 16.1702 54.1891V25.7533H26.7375V53.3245C26.7375 57.8396 29.5235 59.9531 32.8858 59.9531C36.2481 59.9531 38.3616 57.5514 38.3616 53.0363V25.7533ZM67.2814 35.36V54.093H81.7875V63.6997H67.2814V83.3933H85.5341V93H56.7141V25.7533H85.5341V35.36H67.2814ZM89.1043 93.0961V83.4894C93.9076 83.4894 95.4447 82.8169 95.6369 76.5726L97.3661 25.7533H127.243V93H116.483V35.36H107.261L106.108 75.9962C105.724 88.2927 101.305 93.0961 90.7374 93.0961H89.1043ZM145.034 41.2201V77.5333C145.034 82.3366 147.147 84.1619 150.51 84.1619C153.872 84.1619 155.985 82.3366 155.985 77.5333V41.2201C155.985 36.4167 153.872 34.5915 150.51 34.5915C147.147 34.5915 145.034 36.4167 145.034 41.2201ZM134.467 76.8608V41.8925C134.467 31.1331 140.134 24.9848 150.51 24.9848C160.885 24.9848 166.553 31.1331 166.553 41.8925V76.8608C166.553 87.6203 160.885 93.7685 150.51 93.7685C140.134 93.7685 134.467 87.6203 134.467 76.8608ZM189.367 25.7533C200.319 25.7533 205.026 30.8449 205.026 41.2201V43.6217C205.026 50.5385 202.913 54.9576 198.205 57.1671C203.873 59.3767 206.083 64.4682 206.083 71.5771V77.0529C206.083 87.4281 200.607 93 190.04 93H173.42V25.7533H189.367ZM188.695 62.739H183.987V83.3933H190.04C193.594 83.3933 195.515 81.7602 195.515 76.7647V70.9047C195.515 64.6603 193.498 62.739 188.695 62.739ZM189.079 35.36H183.987V53.1323H188.118C192.057 53.1323 194.459 51.4031 194.459 46.0234V42.2768C194.459 37.4735 192.826 35.36 189.079 35.36ZM223.015 35.36V54.093H237.521V63.6997H223.015V83.3933H241.267V93H212.447V25.7533H241.267V35.36H223.015ZM271.928 93L261.649 66.1974L258.383 72.3457V93H247.815V25.7533H258.383V55.0537L272.216 25.7533H282.784L268.086 55.7261L282.784 93H271.928ZM287.113 64.18V54.5733H306.326V64.18H287.113ZM324.053 35.36V93H313.486V25.7533H346.821V93H336.062V35.36H324.053ZM377.924 25.7533L388.683 93H378.02L376.194 80.7995H363.225L361.4 93H351.697L362.457 25.7533H377.924ZM369.662 37.6656L364.57 71.6732H374.753L369.662 37.6656ZM428.38 25.7533L417.044 75.9001C414.547 88.0045 410.416 94.0567 395.718 93.0961V83.6815C401.097 84.0658 404.171 83.1051 405.036 78.2057L405.132 77.6293L390.53 25.7533H401.001L406.765 48.7133L410.032 64.4682L412.529 48.8093L417.333 25.7533H428.38ZM456.932 93L446.652 66.1974L443.386 72.3457V93H432.819V25.7533H443.386V55.0537L457.22 25.7533H467.787L453.089 55.7261L467.787 93H456.932ZM509.032 25.7533H519.599V93H509.032V65.9092C506.726 68.4069 502.884 69.6558 500.002 69.6558C491.356 69.6558 486.841 63.4115 486.841 54.1891V25.7533H497.408V53.3245C497.408 57.8396 500.194 59.9531 503.556 59.9531C506.919 59.9531 509.032 57.5514 509.032 53.0363V25.7533ZM537.952 35.36V54.093H552.458V63.6997H537.952V83.3933H556.205V93H527.385V25.7533H556.205V35.36H537.952ZM559.775 93.0961V83.4894C564.578 83.4894 566.115 82.8169 566.307 76.5726L568.036 25.7533H597.913V93H587.154V35.36H577.931L576.779 75.9962C576.394 88.2927 571.975 93.0961 561.408 93.0961H559.775ZM615.704 41.2201V77.5333C615.704 82.3366 617.818 84.1619 621.18 84.1619C624.542 84.1619 626.656 82.3366 626.656 77.5333V41.2201C626.656 36.4167 624.542 34.5915 621.18 34.5915C617.818 34.5915 615.704 36.4167 615.704 41.2201ZM605.137 76.8608V41.8925C605.137 31.1331 610.805 24.9848 621.18 24.9848C631.555 24.9848 637.223 31.1331 637.223 41.8925V76.8608C637.223 87.6203 631.555 93.7685 621.18 93.7685C610.805 93.7685 605.137 87.6203 605.137 76.8608ZM660.038 25.7533C670.989 25.7533 675.696 30.8449 675.696 41.2201V43.6217C675.696 50.5385 673.583 54.9576 668.876 57.1671C674.544 59.3767 676.753 64.4682 676.753 71.5771V77.0529C676.753 87.4281 671.277 93 660.71 93H644.091V25.7533H660.038ZM659.365 62.739H654.658V83.3933H660.71C664.265 83.3933 666.186 81.7602 666.186 76.7647V70.9047C666.186 64.6603 664.168 62.739 659.365 62.739ZM659.749 35.36H654.658V53.1323H658.789C662.727 53.1323 665.129 51.4031 665.129 46.0234V42.2768C665.129 37.4735 663.496 35.36 659.749 35.36ZM693.685 35.36V54.093H708.191V63.6997H693.685V83.3933H711.938V93H683.118V25.7533H711.938V35.36H693.685ZM742.599 93L732.32 66.1974L729.053 72.3457V93H718.486V25.7533H729.053V55.0537L742.887 25.7533H753.454L738.756 55.7261L753.454 93H742.599ZM757.783 64.18V54.5733H776.997V64.18H757.783ZM794.724 35.36V93H784.156V25.7533H817.492V93H806.732V35.36H794.724ZM848.594 25.7533L859.353 93H848.69L846.865 80.7995H833.896L832.07 93H822.368L833.127 25.7533H848.594ZM840.332 37.6656L835.241 71.6732H845.424L840.332 37.6656ZM899.051 25.7533L887.715 75.9001C885.217 88.0045 881.086 94.0567 866.388 93.0961V83.6815C871.768 84.0658 874.842 83.1051 875.706 78.2057L875.803 77.6293L861.2 25.7533H871.672L877.436 48.7133L880.702 64.4682L883.2 48.8093L888.003 25.7533H899.051ZM927.602 93L917.323 66.1974L914.057 72.3457V93H903.489V25.7533H914.057V55.0537L927.89 25.7533H938.458L923.759 55.7261L938.458 93H927.602ZM979.702 25.7533H990.27V93H979.702V65.9092C977.397 68.4069 973.554 69.6558 970.672 69.6558C962.026 69.6558 957.511 63.4115 957.511 54.1891V25.7533H968.078V53.3245C968.078 57.8396 970.864 59.9531 974.227 59.9531C977.589 59.9531 979.702 57.5514 979.702 53.0363V25.7533ZM1008.62 35.36V54.093H1023.13V63.6997H1008.62V83.3933H1026.87V93H998.055V25.7533H1026.87V35.36H1008.62ZM1030.45 93.0961V83.4894C1035.25 83.4894 1036.79 82.8169 1036.98 76.5726L1038.71 25.7533H1068.58V93H1057.82V35.36H1048.6L1047.45 75.9962C1047.06 88.2927 1042.65 93.0961 1032.08 93.0961H1030.45ZM1086.37 41.2201V77.5333C1086.37 82.3366 1088.49 84.1619 1091.85 84.1619C1095.21 84.1619 1097.33 82.3366 1097.33 77.5333V41.2201C1097.33 36.4167 1095.21 34.5915 1091.85 34.5915C1088.49 34.5915 1086.37 36.4167 1086.37 41.2201ZM1075.81 76.8608V41.8925C1075.81 31.1331 1081.48 24.9848 1091.85 24.9848C1102.23 24.9848 1107.89 31.1331 1107.89 41.8925V76.8608C1107.89 87.6203 1102.23 93.7685 1091.85 93.7685C1081.48 93.7685 1075.81 87.6203 1075.81 76.8608ZM1130.71 25.7533C1141.66 25.7533 1146.37 30.8449 1146.37 41.2201V43.6217C1146.37 50.5385 1144.25 54.9576 1139.55 57.1671C1145.21 59.3767 1147.42 64.4682 1147.42 71.5771V77.0529C1147.42 87.4281 1141.95 93 1131.38 93H1114.76V25.7533H1130.71ZM1130.04 62.739H1125.33V83.3933H1131.38C1134.93 83.3933 1136.86 81.7602 1136.86 76.7647V70.9047C1136.86 64.6603 1134.84 62.739 1130.04 62.739ZM1130.42 35.36H1125.33V53.1323H1129.46C1133.4 53.1323 1135.8 51.4031 1135.8 46.0234V42.2768C1135.8 37.4735 1134.17 35.36 1130.42 35.36ZM1164.36 35.36V54.093H1178.86V63.6997H1164.36V83.3933H1182.61V93H1153.79V25.7533H1182.61V35.36H1164.36ZM1213.27 93L1202.99 66.1974L1199.72 72.3457V93H1189.16V25.7533H1199.72V55.0537L1213.56 25.7533H1224.12L1209.43 55.7261L1224.12 93H1213.27ZM1228.45 64.18V54.5733H1247.67V64.18H1228.45ZM1265.39 35.36V93H1254.83V25.7533H1288.16V93H1277.4V35.36H1265.39ZM1319.26 25.7533L1330.02 93H1319.36L1317.54 80.7995H1304.57L1302.74 93H1293.04L1303.8 25.7533H1319.26ZM1311 37.6656L1305.91 71.6732H1316.09L1311 37.6656ZM1369.72 25.7533L1358.39 75.9001C1355.89 88.0045 1351.76 94.0567 1337.06 93.0961V83.6815C1342.44 84.0658 1345.51 83.1051 1346.38 78.2057L1346.47 77.6293L1331.87 25.7533H1342.34L1348.11 48.7133L1351.37 64.4682L1353.87 48.8093L1358.67 25.7533H1369.72ZM1398.27 93L1387.99 66.1974L1384.73 72.3457V93H1374.16V25.7533H1384.73V55.0537L1398.56 25.7533H1409.13L1394.43 55.7261L1409.13 93H1398.27ZM1450.37 25.7533H1460.94V93H1450.37V65.9092C1448.07 68.4069 1444.22 69.6558 1441.34 69.6558C1432.7 69.6558 1428.18 63.4115 1428.18 54.1891V25.7533H1438.75V53.3245C1438.75 57.8396 1441.53 59.9531 1444.9 59.9531C1448.26 59.9531 1450.37 57.5514 1450.37 53.0363V25.7533ZM1479.29 35.36V54.093H1493.8V63.6997H1479.29V83.3933H1497.55V93H1468.73V25.7533H1497.55V35.36H1479.29ZM1501.12 93.0961V83.4894C1505.92 83.4894 1507.46 82.8169 1507.65 76.5726L1509.38 25.7533H1539.25V93H1528.49V35.36H1519.27L1518.12 75.9962C1517.74 88.2927 1513.32 93.0961 1502.75 93.0961H1501.12ZM1557.05 41.2201V77.5333C1557.05 82.3366 1559.16 84.1619 1562.52 84.1619C1565.88 84.1619 1568 82.3366 1568 77.5333V41.2201C1568 36.4167 1565.88 34.5915 1562.52 34.5915C1559.16 34.5915 1557.05 36.4167 1557.05 41.2201ZM1546.48 76.8608V41.8925C1546.48 31.1331 1552.15 24.9848 1562.52 24.9848C1572.9 24.9848 1578.56 31.1331 1578.56 41.8925V76.8608C1578.56 87.6203 1572.9 93.7685 1562.52 93.7685C1552.15 93.7685 1546.48 87.6203 1546.48 76.8608ZM1601.38 25.7533C1612.33 25.7533 1617.04 30.8449 1617.04 41.2201V43.6217C1617.04 50.5385 1614.92 54.9576 1610.22 57.1671C1615.88 59.3767 1618.09 64.4682 1618.09 71.5771V77.0529C1618.09 87.4281 1612.62 93 1602.05 93H1585.43V25.7533H1601.38ZM1600.71 62.739H1596V83.3933H1602.05C1605.61 83.3933 1607.53 81.7602 1607.53 76.7647V70.9047C1607.53 64.6603 1605.51 62.739 1600.71 62.739ZM1601.09 35.36H1596V53.1323H1600.13C1604.07 53.1323 1606.47 51.4031 1606.47 46.0234V42.2768C1606.47 37.4735 1604.84 35.36 1601.09 35.36ZM1635.03 35.36V54.093H1649.53V63.6997H1635.03V83.3933H1653.28V93H1624.46V25.7533H1653.28V35.36H1635.03ZM1683.94 93L1673.66 66.1974L1670.39 72.3457V93H1659.83V25.7533H1670.39V55.0537L1684.23 25.7533H1694.79L1680.1 55.7261L1694.79 93H1683.94ZM1699.12 64.18V54.5733H1718.34V64.18H1699.12ZM1736.06 35.36V93H1725.5V25.7533H1758.83V93H1748.07V35.36H1736.06ZM1789.93 25.7533L1800.69 93H1790.03L1788.21 80.7995H1775.24L1773.41 93H1763.71L1774.47 25.7533H1789.93ZM1781.67 37.6656L1776.58 71.6732H1786.76L1781.67 37.6656ZM1840.39 25.7533L1829.06 75.9001C1826.56 88.0045 1822.43 94.0567 1807.73 93.0961V83.6815C1813.11 84.0658 1816.18 83.1051 1817.05 78.2057L1817.14 77.6293L1802.54 25.7533H1813.01L1818.78 48.7133L1822.04 64.4682L1824.54 48.8093L1829.34 25.7533H1840.39ZM1868.94 93L1858.66 66.1974L1855.4 72.3457V93H1844.83V25.7533H1855.4V55.0537L1869.23 25.7533H1879.8L1865.1 55.7261L1879.8 93H1868.94Z" fill="white"/>
</svg>
